# xmcd
#
# Track frame offsets:
# 150
# 20839
# 53086
# 72402
# 89146
# 109480
# 123818
# 158610
# 174123
# 188171
# 201896
# 216152
# 231078
# 245565
# 278437
# 298355
# 326556
#
# Disc length: 4669 seconds
#
# Revision: 0
# Processed by: cddbd v1.5PL3 Copyright (c) Steve Scherf et al.
# Submitted via: Axialis_AX_CDPlayer 2.6
#
DISCID=fe123b11
DTITLE=Tab Benoit - Nice And Warm
DYEAR=1900
DGENRE=
TTITLE0=Gone Too Long
TTITLE1=These Blues are all Mine
TTITLE2=These Arms Of Mine
TTITLE3=Jambalaya
TTITLE4=Travelin' South
TTITLE5=Free and Fast
TTITLE6=Georgia
TTITLE7=I've Been Mistreated
TTITLE8=Too Sweet For Me
TTITLE9=Up and Gone
TTITLE10=Twentynine Ways
TTITLE11=She's My Number One
TTITLE12=Loves Lips
TTITLE13=Nice and Warm
TTITLE14=Bone Pickin'
TTITLE15=Bad Luck Blues
TTITLE16=Don't Cut Off Your Hair
EXTD=
EXTT0=
EXTT1=
EXTT2=
EXTT3=
EXTT4=
EXTT5=
EXTT6=
EXTT7=
EXTT8=
EXTT9=
EXTT10=
EXTT11=
EXTT12=
EXTT13=
EXTT14=
EXTT15=
EXTT16=
PLAYORDER=
